<svg xmlns="http://www.w3.org/2000/svg" viewBox="0 0 900 260">
  <defs>
    <radialGradient id="site-logo-body-grad" cx="38%" cy="32%" r="75%">
      <stop offset="0%" stop-color="#ffe17d" />
      <stop offset="55%" stop-color="#ffc93d" />
      <stop offset="100%" stop-color="#ff9f1c" />
    </radialGradient>
  </defs>
  <style>
    .site-logo-wordmark { fill: #1f2430; }
    @media (prefers-color-scheme: dark) {
      .site-logo-wordmark { fill: #e5e7eb; }
    }
  </style>

  <!-- น้อง Solar's own artwork (same paths as MascotFace.tsx, idle mood) scaled/centered into this lockup -->
  <g transform="translate(130,130) scale(3.0) translate(-60,-60)">
    <g fill="#ffc93d">
      <path d="M60 2 L66 22 L54 22 Z" />
      <path d="M60 118 L66 98 L54 98 Z" />
      <path d="M2 60 L22 66 L22 54 Z" />
      <path d="M118 60 L98 66 L98 54 Z" />
      <path d="M17 17 L33 27 L27 33 Z" />
      <path d="M103 103 L87 93 L93 87 Z" />
      <path d="M103 17 L87 27 L93 33 Z" />
      <path d="M17 103 L33 93 L27 87 Z" />
    </g>
    <circle cx="60" cy="60" r="34" fill="url(#site-logo-body-grad)" stroke="#8a4b12" stroke-width="2.2" />
    <ellipse cx="47" cy="47" rx="9" ry="6" fill="#fff5d6" opacity="0.75" transform="rotate(-25 47 47)" />
    <g opacity="0.55">
      <ellipse cx="41" cy="70" rx="6" ry="3.4" fill="#ff7a52" />
      <ellipse cx="79" cy="70" rx="6" ry="3.4" fill="#ff7a52" />
    </g>
    <g>
      <circle cx="49" cy="60" r="4.6" fill="#5b3210" />
      <circle cx="50.6" cy="58.4" r="1.4" fill="#fff" />
      <circle cx="71" cy="60" r="4.6" fill="#5b3210" />
      <circle cx="72.6" cy="58.4" r="1.4" fill="#fff" />
    </g>
    <path d="M52 71 Q60 78 68 71" fill="none" stroke="#8a4b12" stroke-width="2.4" stroke-linecap="round" />
  </g>

  <text x="280" y="128" font-family="Arial, Helvetica, sans-serif" font-weight="700" font-size="72" class="site-logo-wordmark">Nong Fab</text>
  <text x="280" y="204" font-family="Arial, Helvetica, sans-serif" font-weight="700" font-size="72" fill="#aa3bff">Solar EMS</text>
</svg>
